<svg width="64" height="24" viewBox="0 0 64 24" fill="none" xmlns="http://www.w3.org/2000/svg">
<path d="M45.1599 9.99381L46.2436 7.3427C45.6382 7.11862 45.0349 6.88484 44.4413 6.64191C44.0498 6.48173 43.6441 6.30838 43.2277 6.12424L42.0071 9.11C41.7625 9.70851 41.0683 9.99963 40.4566 9.76022C39.8449 9.52081 39.5474 8.84155 39.7921 8.24304L41.0678 5.12243C40.0421 4.6275 38.99 4.09595 37.9549 3.5574L36.6393 6.77563C36.3947 7.37415 35.7005 7.66526 35.0888 7.42585C34.4771 7.18645 34.1796 6.50718 34.4243 5.90867L35.843 2.43809C34.4286 1.67563 33.1101 0.940696 32.0138 0.319469C30.5495 -0.510352 28.7009 0.369527 28.0237 1.88699C26.8773 4.4558 25.1797 8.24304 18.4784 8.77391C14.6635 9.07613 8.81166 6.18631 6.99149 3.73804C6.52714 3.11346 5.67965 2.41355 4.89474 2.49514L3.03633 2.68832C1.62106 2.99071 0.726432 4.74149 0.520275 6.66606C0.497286 6.88063 0.453821 7.16684 0.40142 7.5119C0.179818 8.97122 -0.201601 11.4831 0.13001 14.0789C0.950054 20.4985 4.60318 21.082 4.60318 21.082H6.9143L7.78408 24H9.77216L10.6419 21.082H14.0714L14.9412 24H16.9292L17.799 21.082H36.7354L37.6052 24H39.5933L40.4631 21.082H43.8925L44.7623 24H46.7503L47.6201 21.082H51.0495L51.9193 24H53.9074L54.7772 21.082H56.0718C57.645 21.082 59.2194 20.8103 60.6376 20.1442C63.231 18.9261 64.1025 17.908 63.9906 15.4215C63.7904 13.2665 61.8597 11.7446 57.5279 10.6388C57.5279 10.6388 53.2433 9.71165 48.491 8.13064L47.3749 10.8608C47.1303 11.4593 46.4361 11.7504 45.8244 11.511C45.2127 11.2716 44.9152 10.5923 45.1599 9.99381Z" fill="#0C0243"/>
</svg>
