<svg width="64" height="52" viewBox="0 0 64 52" fill="none" xmlns="http://www.w3.org/2000/svg">
<path d="M22.953 0.822702C22.8188 0.330738 22.3799 -0.0376265 21.8721 0.00307323C16.4399 0.438414 11.3054 2.58379 7.33735 6.11493L2.41713 10.4934L8.68582 20.7487L14.2489 17.3107C15.0763 16.7994 16.1907 17.275 16.3034 18.1925C16.6612 21.1051 17.3295 26.7375 17.8094 31.9277C18.495 39.3427 17.2242 52 17.2242 52H46.7758C46.7758 52 45.505 39.3427 46.1906 31.9277C46.6705 26.7375 47.3388 21.1051 47.6966 18.1925C47.8093 17.275 48.9237 16.7994 49.7511 17.3107L55.436 20.8239L61.4172 10.346L56.6627 6.11493C52.6946 2.58379 47.5601 0.438414 42.1279 0.00307314C41.6201 -0.0376265 41.1812 0.330737 41.047 0.822701C40.0213 4.58054 36.3597 7.36051 32 7.36051C27.6403 7.36051 23.9787 4.58054 22.953 0.822702Z" fill="#0C0243"/>
<path d="M62.5629 11.3655L56.7131 21.6132L57.2793 21.9631C57.9268 22.3633 58.8039 22.1656 59.1823 21.5342L63.8314 13.7768C64.1267 13.2842 64.0269 12.6684 63.5887 12.2784L62.5629 11.3655Z" fill="#0C0243"/>
<path d="M0.411313 12.2784L1.27816 11.507L7.40945 21.5375L6.7207 21.9631C6.07317 22.3633 5.19613 22.1656 4.81772 21.5342L0.168584 13.7768C-0.126654 13.2842 -0.0269015 12.6684 0.411313 12.2784Z" fill="#0C0243"/>
</svg>
